<svg width="104" height="24" viewBox="0 0 104 24" fill="none" xmlns="http://www.w3.org/2000/svg">
<path fill-rule="evenodd" clip-rule="evenodd" d="M3 12C3 16.45 6.25 20.15 10.5 20.9L10.5502 20.8599C10.5334 20.8566 10.5167 20.8533 10.5 20.85V14.5H8.25V12H10.5V10C10.5 7.75 11.95 6.5 14 6.5C14.65 6.5 15.35 6.6 16 6.7V9H14.85C13.75 9 13.5 9.55 13.5 10.25V12H15.9L15.5 14.5H13.5V20.85C13.4833 20.8533 13.4666 20.8566 13.4498 20.8599L13.5 20.9C17.75 20.15 21 16.45 21 12C21 7.05 16.95 3 12 3C7.05 3 3 7.05 3 12Z" fill="#4B5563"/>
<path fill-rule="evenodd" clip-rule="evenodd" d="M58.6615 9.07607C58.6673 9.22598 58.6692 9.37582 58.6692 9.52572C58.6692 14.0705 55.4722 19.3171 49.626 19.3171C47.8301 19.3171 46.1602 18.7447 44.7533 17.7704C45.002 17.7976 45.2546 17.8181 45.511 17.8181C47 17.8181 48.3715 17.2661 49.4593 16.3394C48.0685 16.319 46.8941 15.3174 46.4891 13.9546C46.6835 13.9955 46.8838 14.016 47.0885 14.016C47.3773 14.016 47.6576 13.9752 47.9264 13.8934C46.471 13.58 45.3747 12.19 45.3747 10.5207C45.3747 10.5002 45.3747 10.4934 45.3747 10.4797C45.8037 10.7318 46.2946 10.8885 46.8159 10.9089C45.9619 10.2889 45.4006 9.23278 45.4006 8.04038C45.4006 7.41352 45.5569 6.8207 45.8321 6.30967C47.3992 8.39466 49.7423 9.76424 52.3837 9.90733C52.3295 9.65522 52.3017 9.38955 52.3017 9.12382C52.3017 7.22279 53.7248 5.68286 55.4806 5.68286C56.3947 5.68286 57.2203 6.09856 57.7997 6.7663C58.5252 6.6164 59.2047 6.33024 59.8197 5.93505C59.5814 6.73907 59.0781 7.41348 58.4205 7.83593C59.0639 7.75417 59.6776 7.57034 60.2467 7.29779C59.8197 7.98597 59.2823 8.5923 58.6615 9.07607Z" fill="#4B5563"/>
<path d="M92.0004 3.27271C89.6303 3.27271 89.3328 3.28307 88.4019 3.32543C87.4729 3.36798 86.8387 3.51507 86.2838 3.73089C85.7098 3.9538 85.2229 4.25198 84.7379 4.73725C84.2524 5.22234 83.9542 5.70925 83.7306 6.28307C83.5143 6.83816 83.367 7.47252 83.3252 8.40125C83.2835 9.33216 83.2726 9.6298 83.2726 12C83.2726 14.3702 83.2832 14.6667 83.3254 15.5976C83.3681 16.5267 83.5152 17.1609 83.7308 17.7158C83.9539 18.2898 84.2521 18.7767 84.7373 19.2618C85.2222 19.7472 85.7091 20.0462 86.2827 20.2691C86.838 20.4849 87.4723 20.632 88.4012 20.6745C89.3321 20.7169 89.6293 20.7272 91.9993 20.7272C94.3696 20.7272 94.6661 20.7169 95.597 20.6745C96.526 20.632 97.1609 20.4849 97.7162 20.2691C98.29 20.0462 98.7762 19.7472 99.2611 19.2618C99.7465 18.7767 100.045 18.2898 100.268 17.716C100.483 17.1609 100.63 16.5265 100.674 15.5978C100.716 14.6669 100.726 14.3702 100.726 12C100.726 9.6298 100.716 9.33234 100.674 8.40143C100.63 7.47234 100.483 6.83816 100.268 6.28325C100.045 5.70925 99.7465 5.22234 99.2611 4.73725C98.7756 4.2518 98.2902 3.95361 97.7156 3.73089C97.1593 3.51507 96.5248 3.36798 95.5957 3.32543C94.6648 3.28307 94.3685 3.27271 91.9976 3.27271H92.0004ZM91.2175 4.84543C91.4498 4.84507 91.7091 4.84543 92.0004 4.84543C94.3305 4.84543 94.6066 4.8538 95.5268 4.89561C96.3777 4.93452 96.8395 5.07671 97.1471 5.19616C97.5544 5.35434 97.8447 5.54343 98.15 5.84889C98.4554 6.15434 98.6445 6.44525 98.8031 6.85252C98.9225 7.1598 99.0649 7.62161 99.1036 8.47252C99.1454 9.39252 99.1545 9.66889 99.1545 11.998C99.1545 14.3271 99.1454 14.6034 99.1036 15.5234C99.0647 16.3743 98.9225 16.8362 98.8031 17.1434C98.6449 17.5507 98.4554 17.8407 98.15 18.146C97.8446 18.4514 97.5546 18.6405 97.1471 18.7987C96.8399 18.9187 96.3777 19.0605 95.5268 19.0994C94.6068 19.1412 94.3305 19.1503 92.0004 19.1503C89.6701 19.1503 89.3939 19.1412 88.4739 19.0994C87.623 19.0602 87.1612 18.918 86.8534 18.7985C86.4462 18.6403 86.1553 18.4513 85.8498 18.1458C85.5444 17.8403 85.3553 17.5502 85.1968 17.1427C85.0773 16.8354 84.9349 16.3736 84.8962 15.5227C84.8544 14.6027 84.846 14.3263 84.846 11.9958C84.846 9.66525 84.8544 9.39034 84.8962 8.47034C84.9351 7.61943 85.0773 7.15761 85.1968 6.84998C85.3549 6.4427 85.5444 6.1518 85.8498 5.84634C86.1553 5.54089 86.4462 5.3518 86.8534 5.19325C87.1611 5.07325 87.623 4.93143 88.4739 4.89234C89.279 4.85598 89.591 4.84507 91.2175 4.84325V4.84543ZM96.6588 6.29452C96.0806 6.29452 95.6115 6.76307 95.6115 7.34143C95.6115 7.91961 96.0806 8.3887 96.6588 8.3887C97.2369 8.3887 97.706 7.91961 97.706 7.34143C97.706 6.76325 97.2369 6.29416 96.6588 6.29416V6.29452ZM92.0004 7.51816C89.5253 7.51816 87.5187 9.52489 87.5187 12C87.5187 14.4751 89.5253 16.4809 92.0004 16.4809C94.4754 16.4809 96.4813 14.4751 96.4813 12C96.4813 9.52489 94.4752 7.51816 92.0002 7.51816H92.0004ZM92.0004 9.09089C93.6069 9.09089 94.9094 10.3932 94.9094 12C94.9094 13.6065 93.6069 14.9091 92.0004 14.9091C90.3937 14.9091 89.0914 13.6065 89.0914 12C89.0914 10.3932 90.3937 9.09089 92.0004 9.09089Z" fill="#4B5563"/>
</svg>
